<svg xmlns="http://www.w3.org/2000/svg" width="512" height="512" viewBox="0 0 512 512" version="1.1"><path d="" stroke="none" fill="#a3e635" fill-rule="evenodd"/><path d="M 112.250 61.641 C 111.013 61.915, 110 62.338, 110 62.580 C 110 62.823, 110.956 67.179, 112.124 72.261 C 114.693 83.435, 115.207 102.069, 113.142 109.170 C 111.960 113.237, 106.958 120, 105.131 120 C 104.784 120, 104.490 113.138, 104.477 104.750 C 104.458 91.946, 104.020 87.511, 101.746 77.102 C 100.256 70.283, 98.882 64.548, 98.691 64.357 C 98.076 63.742, 81.737 69.597, 73.694 73.314 L 65.888 76.922 70.848 86.211 C 82.285 107.627, 85.080 125.093, 78.083 131.425 C 76.323 133.017, 76.210 132.878, 75.541 128.296 C 74.355 120.178, 70.165 109.063, 63.371 96.019 C 59.796 89.154, 56.702 83.369, 56.496 83.163 C 55.659 82.326, 43.857 92.372, 36.514 100.172 C 20.274 117.423, 8.889 140.219, 2.766 167.741 C -0.119 180.713, -0.454 213.235, 2.177 225 C 6.512 244.382, 13.994 258.633, 26.509 271.343 C 51.729 296.956, 76.675 302.474, 98.712 287.314 C 115.491 275.772, 123.007 258.271, 118.588 241.034 C 115.231 227.936, 104.206 213.206, 94.030 208.223 C 89.878 206.189, 89.493 206.155, 88.604 207.744 C 87.196 210.259, 87.663 221.911, 89.447 228.796 C 91.733 237.618, 91.521 239.851, 88.280 241.084 C 84.966 242.343, 74.265 240.174, 67.776 236.928 C 62.298 234.186, 56.422 228.594, 53.668 223.500 C 50.434 217.517, 50.569 202.679, 53.928 195 C 61.010 178.810, 78.161 159.928, 94.160 150.707 C 99.795 147.459, 108.793 144.996, 114.960 145.012 C 131.924 145.056, 151.926 158.963, 167.206 181.337 L 171.193 187.174 161.846 182.168 C 140.669 170.825, 117.821 163, 105.880 163 C 101.958 163, 98.470 163.709, 95.483 165.113 C 91.189 167.132, 86 172.063, 86 174.126 C 86 176.365, 89.155 180.812, 94.062 185.489 C 96.940 188.232, 101.651 193.407, 104.531 196.989 C 111.040 205.084, 112.626 206.516, 127.611 217.831 C 140.459 227.532, 147.949 234.812, 148.079 237.728 C 148.123 238.702, 148.094 244.900, 148.016 251.500 C 147.643 283.051, 156.715 305.456, 185.471 344 C 189.779 349.775, 194.101 356.300, 195.074 358.500 C 196.048 360.700, 198.899 370.885, 201.409 381.134 C 210.995 420.262, 219.319 436.303, 235.224 446.300 C 244.850 452.350, 267.150 452.350, 276.776 446.300 C 292.681 436.303, 301.005 420.262, 310.591 381.134 C 313.101 370.885, 315.952 360.700, 316.926 358.500 C 317.899 356.300, 322.221 349.775, 326.529 344 C 355.285 305.456, 364.357 283.051, 363.984 251.500 C 363.906 244.900, 363.877 238.702, 363.921 237.728 C 364.051 234.812, 371.541 227.532, 384.389 217.831 C 399.374 206.516, 400.960 205.084, 407.469 196.989 C 410.349 193.407, 415.060 188.232, 417.938 185.489 C 422.845 180.812, 426 176.365, 426 174.126 C 426 172.063, 420.811 167.132, 416.517 165.113 C 413.530 163.709, 410.042 163, 406.120 163 C 394.179 163, 371.331 170.825, 350.154 182.168 L 340.807 187.174 344.794 181.337 C 353.690 168.311, 366.022 156.420, 376.368 150.892 C 387.283 145.060, 396.670 143.721, 407.276 146.484 C 427.330 151.707, 454.752 180.243, 460.090 201.444 C 461.690 207.797, 460.784 218.561, 458.235 223.500 C 453.864 231.965, 445.195 237.882, 433.194 240.592 C 421.340 243.269, 419.265 241.019, 422.507 229 C 424.222 222.644, 424.728 210.123, 423.368 207.694 C 420.957 203.385, 405.215 216.426, 398.646 228.173 C 387.919 247.354, 390.451 265.863, 405.875 281.014 C 421.981 296.835, 440.354 299.928, 460.344 290.183 C 474.275 283.392, 490.625 268.319, 498.794 254.735 C 503.295 247.250, 508.538 232.161, 509.995 222.500 C 510.658 218.100, 511.606 213.719, 512.100 212.764 C 513.372 210.309, 513.277 181.711, 512 182.500 C 511.411 182.864, 510.994 181.757, 510.984 179.809 C 510.976 177.989, 510.088 172.328, 509.012 167.230 C 503.460 140.928, 491.689 117.384, 475.486 100.172 C 468.143 92.372, 456.341 82.326, 455.504 83.163 C 455.298 83.369, 452.204 89.154, 448.629 96.019 C 441.835 109.063, 437.645 120.178, 436.459 128.296 C 435.790 132.878, 435.677 133.017, 433.917 131.425 C 426.920 125.093, 429.715 107.627, 441.152 86.211 L 446.112 76.922 438.306 73.314 C 429.910 69.434, 413.914 63.752, 413.252 64.415 C 413.029 64.637, 411.659 70.373, 410.206 77.160 C 408.021 87.369, 407.560 92.133, 407.533 104.750 C 407.515 113.138, 407.216 120, 406.869 120 C 405.042 120, 400.040 113.237, 398.858 109.170 C 396.799 102.090, 397.306 83.461, 399.867 72.077 C 401.033 66.894, 401.728 62.394, 401.411 62.077 C 401.094 61.760, 396.035 61.500, 390.168 61.500 C 380.128 61.500, 366.651 63.695, 363.136 65.902 C 362.014 66.607, 362.342 69.049, 364.978 79.630 C 368.752 94.779, 372.850 105.303, 378.071 113.250 C 381.412 118.336, 381.622 119, 379.892 119 C 369.318 119, 358.478 102.370, 352.950 77.667 C 352.252 74.550, 351.181 72, 350.568 72 C 348.943 72, 339.520 78.366, 331.750 84.713 C 328.038 87.746, 325 90.322, 325 90.438 C 325 90.555, 327.440 95.202, 330.422 100.765 C 337.577 114.112, 342.959 121.915, 349.570 128.527 C 352.557 131.513, 355 134.191, 355 134.478 C 355 134.765, 353.362 135, 351.360 135 C 342.367 135, 332.535 126.151, 322.439 108.971 L 316.500 98.866 310.691 105.183 C 303.632 112.860, 289.023 131.582, 279.512 145.141 L 272.500 155.137 256.054 155.123 L 239.608 155.108 228.687 139.804 C 217.512 124.144, 213.441 118.986, 202.153 106.184 L 195.702 98.868 191.193 106.684 C 180.376 125.431, 170.269 134.988, 161.250 134.996 C 158.912 134.998, 157 134.765, 157 134.478 C 157 134.191, 159.443 131.513, 162.430 128.527 C 168.916 122.040, 173.753 115.080, 181.508 101.074 L 187.279 90.649 182.890 86.806 C 177.752 82.307, 162.720 72, 161.298 72 C 160.759 72, 159.743 74.588, 159.039 77.750 C 153.517 102.578, 142.706 119, 131.884 119 C 129.996 119, 130.019 118.840, 132.339 115.750 C 136.013 110.858, 140.563 101.265, 143.409 92.411 C 146.621 82.421, 150.288 66.955, 149.607 66.274 C 149.322 65.989, 146.032 64.879, 142.295 63.807 C 135.661 61.904, 117.102 60.565, 112.250 61.641 M 103.024 174.750 C 103.037 175.713, 105.624 180.319, 108.774 184.988 C 115.182 194.486, 121.226 199.856, 138.876 211.734 C 148.873 218.462, 150.812 219.397, 154.876 219.445 C 159.206 219.497, 159.611 219.273, 161.247 215.930 C 162.207 213.966, 163.277 209.643, 163.624 206.323 C 164.241 200.420, 164.175 200.200, 160.604 196.247 C 158.596 194.024, 154.376 190.686, 151.227 188.827 C 132.047 177.511, 102.946 169.013, 103.024 174.750 M 390 175.899 C 372.448 181.587, 357.543 189.443, 351.397 196.245 C 347.882 200.136, 347.767 200.499, 348.276 206.110 C 348.567 209.314, 349.636 213.638, 350.652 215.718 C 354.014 222.598, 359.312 221.377, 376 209.875 C 391.339 199.303, 397.177 193.961, 403.200 184.990 C 406.335 180.321, 408.922 175.713, 408.950 174.750 C 409.027 172.059, 400.197 172.595, 390 175.899 M 0.402 198 C 0.402 206.525, 0.556 210.012, 0.743 205.750 C 0.931 201.488, 0.931 194.512, 0.743 190.250 C 0.556 185.988, 0.402 189.475, 0.402 198 M 168.986 274.231 C 160.826 279.730, 159.365 289.018, 164.932 300 C 173.730 317.356, 184.290 332, 188.007 332 C 191.081 332, 192.390 326.114, 191.075 318.200 C 188.723 304.041, 176.890 273.227, 173.432 272.255 C 172.844 272.090, 170.843 272.979, 168.986 274.231 M 336.414 274.491 C 333.720 278.603, 327.357 294.034, 324.638 303.050 C 319.371 320.519, 319.017 331.118, 323.678 331.802 C 327.477 332.360, 337.733 318.415, 347.068 300 C 352.626 289.035, 351.173 279.729, 343.048 274.253 C 338.850 271.424, 338.413 271.440, 336.414 274.491 M 229.200 424.200 C 227.135 426.265, 227.878 429.495, 231.197 432.890 C 235.221 437.006, 241.016 440, 244.960 440 C 247.636 440, 248 439.658, 248 437.150 C 248 434.061, 243.533 427.187, 239.848 424.606 C 237.155 422.720, 230.918 422.482, 229.200 424.200 M 272.152 424.606 C 268.467 427.187, 264 434.061, 264 437.150 C 264 439.658, 264.364 440, 267.040 440 C 270.984 440, 276.779 437.006, 280.803 432.890 C 284.122 429.495, 284.865 426.265, 282.800 424.200 C 281.082 422.482, 274.845 422.720, 272.152 424.606" stroke="none" fill="#a3e635" fill-rule="evenodd"/></svg>