<svg xmlns="http://www.w3.org/2000/svg" width="512" height="512" viewBox="0 0 512 512" version="1.1"><path d="" stroke="none" fill="#bef264" fill-rule="evenodd"/><path d="M 250.500 33.849 C 246.660 35.646, 244.142 39.806, 187.681 137.611 L 128.861 239.500 117.681 247.638 C 103.299 258.106, 86.803 272.341, 75.814 283.766 C 63.123 296.962, 63.070 300.421, 75.361 313.652 L 82.005 320.804 41.003 391.825 C 3.814 456.241, -0 463.260, -0 467.289 C -0 472.551, 2.701 476.559, 7.636 478.621 C 12.604 480.697, 499.432 480.682, 504.400 478.606 C 509.559 476.451, 513 471.245, 513 465.597 C 513 463.004, 512.642 461.103, 512.203 461.374 C 511.765 461.645, 493.089 430.128, 470.699 391.337 L 429.992 320.807 436.637 313.653 C 448.930 300.421, 448.878 296.963, 436.186 283.766 C 425.197 272.341, 408.701 258.106, 394.319 247.638 L 383.139 239.500 324.486 138 C 292.227 82.175, 264.819 35.747, 263.579 34.826 C 259.917 32.106, 255.006 31.739, 250.500 33.849 M 243.771 222.108 C 200.027 225.470, 151.730 249.211, 106.679 289.498 L 96.858 298.280 101.179 302.716 C 113.212 315.070, 138.341 334.291, 157.055 345.457 C 179.479 358.836, 202.411 368.036, 226.042 373.133 C 241.188 376.400, 270.752 376.405, 286 373.142 C 323.795 365.056, 360.979 345.592, 397.500 314.775 C 402.450 310.598, 408.454 305.168, 410.843 302.708 L 415.186 298.235 403.343 287.848 C 372.160 260.496, 342.575 242.377, 310.769 231.151 C 299.685 227.239, 281.487 223.236, 271.500 222.513 C 267.100 222.194, 261.475 221.787, 259 221.608 C 256.525 221.430, 249.672 221.654, 243.771 222.108 M 243.075 228.022 C 227.453 231.317, 216.875 237.065, 205.453 248.468 C 198.117 255.791, 195.616 259.108, 192.235 266 C 186.184 278.330, 184.544 285.375, 184.551 299 C 184.556 308.200, 185.020 311.995, 186.875 317.975 C 193.093 338.017, 205.399 353.182, 222.917 362.387 C 243.069 372.977, 268.826 373.032, 288.815 362.528 C 315.795 348.350, 331.587 318.011, 327.075 289.023 C 324.468 272.270, 318.555 260.599, 306.500 248.412 C 292.755 234.516, 277.967 228.054, 258.500 227.438 C 252.450 227.246, 245.509 227.509, 243.075 228.022 M 241.762 254.942 C 218.004 262.537, 204.613 288.350, 212.009 312.295 C 216.100 325.540, 226.743 336.985, 239.757 342.134 C 247.908 345.358, 263.928 345.342, 272.240 342.101 C 283.904 337.554, 294.435 327.052, 299.152 315.264 C 301.065 310.484, 301.462 307.622, 301.479 298.500 C 301.499 287.895, 301.370 287.230, 297.889 280 C 291.658 267.060, 282.449 258.798, 269.909 254.895 C 261.991 252.430, 249.554 252.451, 241.762 254.942 M 245.424 271.057 C 225.285 278.805, 219.906 304.724, 235.308 319.801 C 241.223 325.591, 247.611 328.176, 256 328.176 C 271.699 328.176, 283.816 316.969, 285.525 300.867 C 286.265 293.892, 285.327 292.428, 281.422 294.464 C 275.770 297.411, 268.435 295.337, 264.966 289.810 C 262.273 285.520, 262.715 277.997, 265.856 274.653 C 267.035 273.398, 268 272.116, 268 271.804 C 268 270.816, 259.285 268.998, 254.807 269.052 C 252.438 269.081, 248.216 269.983, 245.424 271.057 M 0.300 467 C 0.300 470.025, 0.487 471.262, 0.716 469.750 C 0.945 468.238, 0.945 465.762, 0.716 464.250 C 0.487 462.738, 0.300 463.975, 0.300 467" stroke="none" fill="#bef264" fill-rule="evenodd"/></svg>