<svg xmlns="http://www.w3.org/2000/svg" width="512" height="512" viewBox="0 0 512 512" version="1.1"><path d="" stroke="none" fill="#a3e635" fill-rule="evenodd"/><path d="M 0.229 20.250 L 0.500 40.500 6.888 41.205 C 15.357 42.138, 25.949 47.255, 33.252 53.940 C 40.854 60.898, 46.621 72.273, 47.985 83 C 48.551 87.454, 48.951 152.126, 48.969 242.250 L 49 394 68.979 394 L 88.958 394 89.231 237.250 C 89.491 88.329, 89.596 80.225, 91.338 75 C 98.277 54.183, 116.212 40.909, 137.480 40.850 C 141.971 40.838, 147.626 41.361, 150.047 42.013 C 166.435 46.426, 180.028 59.985, 185.146 77.025 C 186.246 80.689, 186.491 109.787, 186.495 237.500 L 186.500 393.500 206.750 393.771 L 227 394.041 227.017 240.271 C 227.032 110.565, 227.259 85.441, 228.469 79.730 C 235.003 48.898, 268.501 31.956, 296.454 45.347 C 308.311 51.027, 316.217 59.498, 321.232 71.895 L 323.500 77.500 324.050 228 C 324.672 398.261, 323.928 383.782, 333.015 402.500 C 341.072 419.093, 352.306 430.787, 368 438.916 C 382.343 446.345, 386.784 447.254, 411.926 447.913 L 434.352 448.500 416.159 466 L 397.967 483.500 412.489 497.993 L 427.011 512.486 469.754 469.743 L 512.497 427 469.755 384.257 L 427.012 341.515 413.006 355.494 C 405.303 363.183, 399 369.835, 399 370.277 C 399 370.719, 406.969 379.190, 416.709 389.101 L 434.418 407.120 414.459 406.810 C 395.223 406.511, 394.293 406.403, 388.782 403.820 C 381.696 400.499, 374.184 393.592, 370.705 387.199 C 364.727 376.215, 365 383.965, 365 225.400 C 365 97.678, 364.811 79.226, 363.431 71.948 C 357.210 39.158, 332.388 12.329, 299.458 2.807 C 292.678 0.846, 289.205 0.505, 276 0.505 C 258.350 0.505, 250.628 2.146, 237.709 8.640 C 227.696 13.673, 222.640 17.272, 214.312 25.294 L 207.125 32.217 201.812 26.806 C 190.947 15.740, 176.695 7.209, 162 2.976 C 151.268 -0.115, 132.171 -0.823, 120.927 1.453 C 103.600 4.961, 87.893 13.181, 75.778 25.081 L 68.988 31.751 62.711 25.597 C 47.345 10.530, 23.612 0, 5.021 -0 L -0.041 -0 0.229 20.250" stroke="none" fill="#a3e635" fill-rule="evenodd"/></svg>