<svg xmlns="http://www.w3.org/2000/svg" width="512" height="512" viewBox="0 0 512 512" version="1.1"><path d="" stroke="none" fill="#bef264" fill-rule="evenodd"/><path d="M 250.741 11.397 C 246.123 13.084, 244.274 14.569, 242.488 18.024 C 241.728 19.492, 227.341 54.845, 210.515 96.585 C 193.689 138.326, 179.518 172.882, 179.023 173.377 C 178.528 173.872, 140.461 176.908, 94.429 180.124 C 2.644 186.537, 6.984 185.933, 2.253 192.952 C -0.803 197.487, -0.803 204.512, 2.253 209.047 C 3.492 210.886, 33.123 236.658, 68.100 266.318 L 131.693 320.246 111.376 401.373 C 100.201 445.993, 91.045 484.210, 91.029 486.300 C 90.957 495.735, 100.849 503.624, 109.604 501.113 C 111.251 500.641, 144.350 480.408, 183.158 456.150 C 221.966 431.893, 254.364 411.798, 255.154 411.495 C 255.987 411.175, 286.562 429.691, 327.965 455.590 C 367.221 480.146, 400.701 500.627, 402.365 501.105 C 411.152 503.625, 421.043 495.754, 420.971 486.300 C 420.955 484.210, 411.799 445.993, 400.624 401.373 L 380.307 320.246 443.881 266.335 C 478.847 236.683, 508.688 210.640, 510.195 208.462 C 512.251 205.487, 512.942 203.275, 512.967 199.583 C 512.985 196.879, 512.718 194.949, 512.373 195.293 C 512.029 195.638, 510.790 194.500, 509.620 192.764 C 504.984 185.885, 508.752 186.411, 421.314 180.439 C 377.416 177.440, 339.478 174.652, 337.007 174.243 L 332.515 173.500 301.346 96.210 C 284.204 53.701, 269.459 17.823, 268.580 16.481 C 265.332 11.525, 256.937 9.132, 250.741 11.397 M 0.300 201 C 0.300 204.025, 0.487 205.262, 0.716 203.750 C 0.945 202.238, 0.945 199.762, 0.716 198.250 C 0.487 196.738, 0.300 197.975, 0.300 201" stroke="none" fill="#bef264" fill-rule="evenodd"/></svg>