<svg xmlns="http://www.w3.org/2000/svg" width="512" height="512" viewBox="0 0 512 512" version="1.1"><path d="" stroke="none" fill="#bef2644" fill-rule="evenodd"/><path d="M 55 55.935 C 45.814 58.740, 36.777 67.094, 33.745 75.585 C 32.104 80.182, 31.990 89.523, 31.995 220.072 C 32.001 379.941, 31.113 365.294, 41.421 375.544 C 51.616 385.681, 43.718 385, 151.104 385 C 240.374 385, 244.175 384.925, 249.048 383.074 C 255.551 380.603, 260.193 377.033, 263.889 371.661 C 270.375 362.235, 270.055 370.607, 269.764 217.925 L 269.500 79.457 266.200 72.755 C 262.406 65.048, 256.794 59.869, 249.045 56.925 C 244.170 55.073, 240.460 55.003, 150.739 55.086 C 99.458 55.133, 56.375 55.515, 55 55.935 M 78.545 87.905 C 76.967 91.208, 75.107 94.129, 74.414 94.395 C 73.720 94.661, 71.247 96.082, 68.918 97.552 L 64.683 100.225 70.565 103.363 C 75.223 105.847, 77.076 107.588, 79.473 111.732 C 81.138 114.610, 82.755 116.973, 83.066 116.982 C 83.378 116.992, 84.879 114.392, 86.402 111.205 C 88.650 106.502, 90.092 104.892, 94.050 102.667 C 96.733 101.159, 99.151 99.565, 99.422 99.126 C 99.694 98.687, 97.312 97.083, 94.131 95.562 C 90.253 93.709, 87.782 91.759, 86.635 89.649 C 85.693 87.917, 84.134 85.465, 83.170 84.200 L 81.416 81.900 78.545 87.905 M 285 153 C 285 183.800, 285.256 209, 285.570 209 C 285.883 209, 288.168 207.605, 290.647 205.899 C 297.072 201.479, 310.321 195.529, 318.500 193.391 C 323.751 192.019, 328.998 191.576, 339.500 191.621 C 351.701 191.672, 354.630 192.023, 362.297 194.349 C 371.511 197.145, 380.831 201.423, 384.920 204.734 C 388.353 207.514, 388.210 212.562, 384.611 215.658 C 382.264 217.677, 380.823 218, 374.154 218 C 359.322 218, 346.969 223.143, 336.390 233.721 C 326.201 243.910, 321.034 256.653, 321.012 271.645 C 320.990 286.489, 326.709 299.648, 337.763 310.192 C 351.412 323.211, 369.609 327.832, 388.355 323.037 C 392.576 321.958, 396.811 321.351, 397.765 321.689 C 401.272 322.932, 403 325.305, 403 328.878 C 403 331.938, 402.146 333.259, 397.012 338.145 C 369.226 364.585, 325.520 368.606, 293.195 347.695 C 289.204 345.113, 285.727 343, 285.469 343 C 285.211 343, 285 346.505, 285 350.790 C 285 373.359, 272.085 391.826, 251.909 398.105 C 246.454 399.803, 242.403 400, 212.911 400 C 191.700 400, 180 400.354, 180 400.997 C 180 402.782, 187.228 410.049, 191.483 412.543 C 196.823 415.673, 369.326 458, 376.741 458 C 390.030 458, 402.360 449.423, 406.494 437.305 C 407.208 435.212, 422.291 374.108, 440.012 301.518 C 468.263 185.793, 472.163 168.873, 471.676 164.151 C 470.396 151.746, 461.152 140.608, 449.135 136.990 C 442.269 134.923, 287.457 97, 285.886 97 C 285.382 97, 285 121.139, 285 153 M 145.705 125.250 C 144.492 126.487, 138.799 135.713, 133.053 145.750 L 122.606 164 95.859 164 C 69.280 164, 69.094 164.015, 66.399 166.333 C 64.533 167.938, 63.715 169.578, 63.778 171.583 C 63.835 173.388, 68.879 183.152, 77.004 197.187 C 88.951 217.824, 90.028 220.083, 88.917 222.187 C 88.245 223.459, 82.779 232.970, 76.769 243.322 C 63.690 265.852, 62.894 267.590, 64.143 270.875 C 66.027 275.831, 66.662 275.934, 95.533 275.968 L 122.567 276 133.032 294.250 C 138.788 304.288, 144.490 313.512, 145.703 314.750 C 146.976 316.049, 149.123 317, 150.780 317 C 154.813 317, 156.405 314.953, 168.280 294.500 L 178.731 276.500 206.455 276 C 234.109 275.501, 234.184 275.494, 236.090 273.139 C 237.140 271.841, 238 269.797, 238 268.598 C 238 267.398, 231.976 255.984, 224.613 243.233 L 211.227 220.049 222.695 200.275 C 239.871 170.659, 239.636 171.244, 236.090 166.861 C 234.184 164.506, 234.112 164.499, 206.399 164 L 178.619 163.500 167.970 145.089 C 162.113 134.963, 156.299 125.851, 155.050 124.839 C 151.992 122.363, 148.378 122.522, 145.705 125.250 M 145.750 154.312 C 143.137 158.872, 141 162.917, 141 163.302 C 141 163.686, 145.526 164, 151.059 164 L 161.117 164 157.309 157.010 C 150.562 144.628, 151.211 144.780, 145.750 154.312 M 85 179.725 C 85 180.764, 98.401 203.998, 99 203.998 C 99.599 203.998, 113 180.764, 113 179.725 C 113 179.326, 106.700 179, 99 179 C 91.300 179, 85 179.326, 85 179.725 M 119.660 199.496 L 107.831 220.032 119.630 240.537 L 131.430 261.041 150.825 260.770 L 170.220 260.500 181.585 241 C 187.836 230.275, 192.941 220.825, 192.929 220 C 192.918 219.175, 187.803 209.725, 181.562 199 L 170.216 179.500 150.853 179.230 L 131.489 178.959 119.660 199.496 M 188 179.442 C 188 180.798, 201.665 202.974, 202.500 202.973 C 203.306 202.972, 217 180.682, 217 179.370 C 217 179.167, 210.475 179, 202.500 179 C 194.525 179, 188 179.199, 188 179.442 M 328.831 207.023 C 313.699 209.577, 300.428 216.054, 289.250 226.343 L 285 230.255 285 276 L 285 321.745 289.250 325.657 C 304.576 339.764, 322.986 346.687, 342.500 345.683 C 351.404 345.225, 367.031 341.698, 365.766 340.432 C 365.530 340.197, 361.870 339.118, 357.632 338.034 C 335.425 332.354, 317.892 316.460, 309.727 294.608 C 307.143 287.691, 306.633 284.737, 306.253 274.500 C 305.709 259.855, 307.267 252.160, 313.238 240 C 318.589 229.102, 330.989 216.229, 341.188 210.983 C 345.378 208.828, 347.433 207.260, 346.688 206.786 C 345.203 205.842, 335.032 205.977, 328.831 207.023 M 91.750 247.809 C 88.037 254.292, 85 259.912, 85 260.298 C 85 260.684, 91.300 261, 99 261 C 106.700 261, 113 260.684, 113 260.298 C 113 259.273, 99.591 236.022, 99 236.022 C 98.725 236.022, 95.463 241.326, 91.750 247.809 M 197.972 243.152 C 195.644 247.193, 192.423 252.687, 190.812 255.359 C 189.202 258.031, 188.073 260.407, 188.304 260.637 C 188.535 260.868, 195.081 260.931, 202.851 260.778 L 216.978 260.500 210.424 249 C 206.819 242.675, 203.495 237.118, 203.037 236.652 C 202.578 236.185, 200.299 239.110, 197.972 243.152 M 379.116 257.862 C 375.662 261.987, 374.095 262.991, 368.772 264.485 L 362.500 266.246 367.500 270.641 C 371.661 274.298, 372.835 276.130, 374.500 281.563 L 376.500 288.090 380.500 283.018 C 383.797 278.837, 385.466 277.655, 390 276.287 C 393.025 275.374, 395.874 274.314, 396.332 273.932 C 396.789 273.549, 395.109 271.519, 392.597 269.419 C 388.968 266.386, 387.600 264.308, 385.934 259.301 C 384.781 255.835, 383.691 253, 383.512 253 C 383.333 253, 381.354 255.188, 379.116 257.862 M 141 276.654 C 141 277.372, 147.568 289.407, 149.553 292.326 C 150.665 293.961, 151.328 293.245, 155.897 285.482 C 158.704 280.713, 161 276.629, 161 276.406 C 161 276.183, 156.500 276, 151 276 C 145.500 276, 141 276.294, 141 276.654 M 220.113 323.777 C 217.548 328.857, 216.161 330.333, 211.381 333.068 L 205.699 336.319 211.901 339.450 C 217.189 342.119, 218.584 343.428, 221.355 348.318 L 224.607 354.054 227.508 347.983 C 229.944 342.886, 231.259 341.426, 235.705 338.883 C 238.617 337.217, 240.999 335.549, 240.997 335.177 C 240.996 334.804, 238.423 333.150, 235.280 331.500 C 230.777 329.136, 228.887 327.359, 226.364 323.118 L 223.162 317.737 220.113 323.777" stroke="none" fill="#bef264" fill-rule="evenodd"/></svg>