<svg xmlns="http://www.w3.org/2000/svg" width="512" height="512" viewBox="0 0 512 512" version="1.1"><path d="" stroke="none" fill="#a3e635" fill-rule="evenodd"/><path d="M 270.084 11.052 C 259.307 13.874, 255.500 15.949, 255.500 19 C 255.500 21.350, 255.811 21.498, 260.679 21.461 C 263.997 21.436, 265.636 21.795, 265.242 22.461 C 264.903 23.033, 262.863 25.853, 260.709 28.729 C 257.327 33.242, 256.525 33.816, 254.846 32.918 C 251.921 31.352, 247.579 32.175, 247.162 34.373 C 246.966 35.403, 247.775 37.557, 248.960 39.160 L 251.115 42.074 245.530 50.044 C 239.259 58.993, 237.677 62.408, 238.542 65.132 C 240.047 69.873, 244.904 65.855, 253.508 52.750 C 255.584 49.587, 257.467 47, 257.691 47 C 257.916 47, 259.457 47.702, 261.116 48.560 C 268.512 52.385, 272.946 47.554, 267.073 42.069 C 265.383 40.490, 264 38.916, 264 38.573 C 264 38.229, 265.688 35.681, 267.750 32.910 L 271.500 27.872 271.807 31.932 C 272.405 39.824, 279.432 39.674, 280.393 31.747 C 282.052 18.052, 282.045 12.708, 280.366 10.852 C 278.383 8.660, 279.285 8.643, 270.084 11.052 M 354.750 31.080 C 353.439 31.844, 353 33.403, 352.999 37.300 C 352.998 42.868, 350.022 50.264, 343.385 61.190 C 340.506 65.928, 340.085 67.291, 340.983 68.967 C 343.028 72.789, 346.167 71.415, 353.242 63.603 C 362.698 53.162, 372.144 48.867, 376.999 52.798 L 379.424 54.761 376.686 58.898 C 371.131 67.293, 360.817 79.994, 357.826 82.124 C 353.460 85.233, 346.665 85.650, 340.455 83.190 C 334.991 81.025, 332 81.628, 332 84.895 C 332 88.605, 339.875 93.065, 346.885 93.325 L 351.577 93.500 351.178 99.116 C 350.485 108.872, 355.054 115.071, 363.019 115.181 C 371.261 115.295, 378.471 107.459, 377.665 99.264 C 377.128 93.799, 374.640 90, 371.599 90 C 367.811 90, 366.408 92.474, 367.883 96.554 C 369.460 100.915, 367.662 105.332, 364.104 105.837 C 361.165 106.255, 360.035 104.592, 360.015 99.821 C 360 96.040, 365.028 88.518, 381.061 68.342 C 387.768 59.903, 389.123 55.578, 386.672 50.438 C 385.796 48.601, 383.993 46.386, 382.666 45.517 C 378.044 42.488, 369.144 42.471, 361.807 45.477 C 360.300 46.094, 360.225 45.770, 361.122 42.520 C 362.275 38.345, 361.522 33.664, 359.347 31.490 C 357.610 29.753, 357.106 29.708, 354.750 31.080 M 145.106 42.901 C 143.398 44.497, 142 46.297, 142 46.901 C 142 47.506, 140.381 48, 138.401 48 C 134.194 48, 129.825 51.971, 128.022 57.432 C 126.980 60.592, 126.746 60.730, 124.133 59.744 C 117.071 57.079, 112.852 62.412, 119.520 65.576 C 123.760 67.589, 125.778 70.298, 131.144 81.188 C 133.397 85.760, 136.117 90.737, 137.188 92.250 C 139.378 95.341, 142.431 95.839, 143.833 93.334 C 144.964 91.313, 144.193 88.572, 140.010 79.748 C 136.439 72.214, 135.137 63.233, 136.942 58.587 C 137.574 56.961, 138.432 56.078, 138.883 56.587 C 139.328 57.089, 141.127 61.550, 142.881 66.500 C 148.175 81.441, 152.010 86.765, 155.750 84.368 C 158.284 82.744, 157.747 79.858, 152.546 67.165 C 148.335 56.889, 148.006 55.512, 149.023 52.429 C 150.387 48.296, 151.370 47.592, 153.893 48.943 C 155.227 49.656, 157.285 54.403, 160.528 64.239 C 163.113 72.082, 166.285 80.351, 167.576 82.613 C 174.146 94.124, 186.441 98.061, 193.940 91.056 L 196.809 88.376 198.388 91.688 C 200.127 95.334, 202.850 96.007, 205.429 93.428 C 207.259 91.598, 206.892 89.512, 203.087 80.098 C 200.072 72.636, 198.643 71.469, 193.667 72.403 C 186.288 73.787, 182.392 80.244, 188.045 81.722 C 189.968 82.225, 189.987 82.357, 188.385 84.127 C 185.941 86.828, 182.567 86.436, 178.650 82.997 C 174.965 79.762, 172.669 74.695, 168.456 60.500 C 166.986 55.550, 164.915 49.795, 163.852 47.711 C 159.887 39.937, 150.780 37.601, 145.106 42.901 M 441.652 119.428 C 433.222 127.280, 433.150 129.463, 441.289 130.464 C 449.181 131.436, 452 132.082, 452 132.919 C 452 133.337, 450.200 135.344, 448 137.380 C 445.800 139.415, 444 141.480, 444 141.969 C 444 143.342, 446.982 146, 448.522 146 C 449.281 146, 452.221 146.497, 455.056 147.105 L 460.210 148.211 456.003 152.497 C 449.888 158.727, 450.625 159.842, 464.544 165.412 C 470.851 167.935, 476.468 170, 477.027 170 C 477.586 170, 478.549 168.888, 479.168 167.530 C 480.739 164.083, 479.291 162.668, 470.927 159.472 C 467.117 158.016, 464 156.622, 464 156.374 C 464 156.126, 465.800 154.049, 468 151.760 C 470.259 149.409, 472 146.613, 472 145.337 C 472 142.947, 469.614 141.966, 460.207 140.485 L 455.915 139.810 459.525 135.405 C 462.014 132.366, 462.944 130.400, 462.522 129.069 C 461.914 127.155, 460.679 126.728, 452 125.438 C 449.525 125.070, 447.144 124.558, 446.710 124.301 C 446.275 124.043, 447.539 122.039, 449.520 119.846 C 451.500 117.654, 452.946 115.330, 452.732 114.681 C 451.782 111.794, 448.199 113.329, 441.652 119.428 M 54.783 119.922 C 48.537 123.884, 44.911 130.241, 44.258 138.378 C 43.450 148.436, 47.746 154.909, 57.250 157.954 C 59.313 158.615, 61 159.354, 61 159.597 C 61 159.841, 59.875 161.822, 58.500 164 C 55.460 168.816, 55.327 171.569, 58.064 173.034 C 60.801 174.499, 61.536 173.819, 69.027 162.882 C 74.905 154.299, 75.105 153.809, 73.635 151.566 C 72.217 149.402, 71.602 149.262, 65.605 149.744 C 59.387 150.243, 58.981 150.135, 56.056 147.209 C 51.161 142.315, 51.842 135.147, 57.809 128.750 C 62.870 123.324, 72.532 126.627, 75.984 134.962 C 77.393 138.364, 80.414 139.731, 82.568 137.944 C 83.377 137.272, 86.080 133.803, 88.574 130.236 C 93.861 122.673, 94.279 118.706, 89.843 118.193 C 87.767 117.952, 86.499 118.740, 84.043 121.797 L 80.899 125.709 77.700 122.707 C 70.758 116.194, 62.285 115.165, 54.783 119.922 M 251.165 127.301 C 250.571 128.017, 249.156 140.504, 248.021 155.051 C 245.252 190.521, 242.081 224.624, 241.383 226.443 C 240.456 228.861, 237.128 229.312, 234.201 227.418 C 231.220 225.488, 223.187 219.073, 203.362 202.790 C 190.547 192.265, 187.660 190.740, 185.200 193.200 C 182.841 195.559, 184.126 198.181, 193.314 209.761 C 207.086 227.120, 218.557 242.210, 219.840 244.657 C 220.749 246.391, 220.630 247.228, 219.235 248.920 C 217.681 250.805, 214.419 251.389, 188 254.505 C 171.775 256.420, 157.262 257.989, 155.750 257.993 C 152.199 258.002, 148.971 261.173, 149.695 263.941 C 149.995 265.091, 150.635 266.274, 151.116 266.571 C 151.596 266.869, 165.830 268.663, 182.745 270.559 C 199.660 272.455, 214.512 274.445, 215.750 274.982 C 217.140 275.584, 217.998 276.825, 217.994 278.229 C 217.991 279.521, 212.820 287.763, 205.994 297.354 C 199.397 306.624, 194 314.611, 194 315.104 C 194 316.711, 198.121 320.167, 199.436 319.663 C 200.140 319.393, 208.621 313.508, 218.282 306.586 C 227.943 299.664, 236.547 294, 237.401 294 C 241.737 294, 243.236 303.438, 248.506 363.912 C 249.341 373.488, 250.523 381.926, 251.134 382.662 C 252.933 384.829, 256.922 384.296, 257.962 381.750 C 258.468 380.512, 259.860 369.375, 261.055 357 C 264.281 323.619, 267.517 299.286, 268.964 297.543 C 269.669 296.694, 270.977 296.007, 271.872 296.015 C 272.768 296.023, 280.700 302.094, 289.500 309.506 C 298.300 316.918, 306.255 322.986, 307.179 322.991 C 309.148 323.002, 312 320.404, 312 318.600 C 312 317.909, 306.375 309.971, 299.500 300.960 C 286.166 283.485, 284.818 280.417, 289.250 277.632 C 290.527 276.830, 303.174 274.628, 318.500 272.539 C 359.711 266.924, 359 267.103, 359 262.356 C 359 259.197, 356.789 258.382, 344.500 257.008 C 316.666 253.896, 288.284 249.700, 286.250 248.396 C 285.012 247.603, 284 246.127, 284 245.117 C 284 244.107, 291.200 234.027, 300 222.716 C 308.800 211.406, 316 201.475, 316 200.647 C 316 198.798, 313.323 196, 311.553 196 C 310.836 196, 301.602 202.750, 291.033 211 C 280.464 219.250, 271.408 226, 270.908 226 C 270.409 226, 269.182 225.182, 268.181 224.181 C 266.221 222.221, 265.439 214.905, 260.894 156 C 259.728 140.875, 258.319 127.938, 257.764 127.250 C 256.445 125.616, 252.538 125.647, 251.165 127.301 M 99.799 129.750 C 95.926 134.236, 70.874 176.101, 71.167 177.595 C 71.681 180.207, 74.654 181.704, 76.750 180.406 C 77.713 179.810, 85.175 168.715, 93.333 155.750 C 106.319 135.113, 108.026 131.918, 107.048 130.089 C 105.679 127.532, 101.868 127.354, 99.799 129.750 M 415.694 134.872 C 406.787 144.097, 407.161 145.177, 419.723 146.523 L 425.946 147.190 422.473 151.739 C 420.563 154.241, 419 156.618, 419 157.021 C 419 158.467, 421.567 159.832, 425.500 160.478 C 427.700 160.839, 430.759 161.370, 432.297 161.657 L 435.094 162.180 431.547 166.508 C 428.025 170.806, 427.171 173.369, 428.903 174.440 C 429.400 174.747, 435.323 176.411, 442.065 178.138 C 453.695 181.117, 454.390 181.187, 455.623 179.501 C 457.911 176.372, 455.701 174.529, 447.322 172.577 C 443.020 171.574, 439.162 170.557, 438.749 170.318 C 438.337 170.078, 439.574 167.818, 441.499 165.297 C 443.425 162.775, 445 160.359, 445 159.928 C 445 157.872, 441.581 156.211, 436.065 155.587 C 432.729 155.209, 430 154.650, 430 154.344 C 430 154.038, 431.395 152.027, 433.099 149.874 C 434.849 147.665, 435.949 145.310, 435.625 144.465 C 434.891 142.553, 430.810 141, 426.517 141 C 419.949 141, 419.467 140.130, 423.657 135.839 C 426.765 132.656, 427.259 131.634, 426.371 130.224 C 424.370 127.047, 422.435 127.889, 415.694 134.872 M 41.643 216.997 C 35.836 218.800, 32.396 223.974, 33.540 229.182 C 34.765 234.759, 40.648 235.207, 41.193 229.766 C 41.661 225.097, 43.878 224.281, 50.460 226.356 C 56.394 228.226, 62.273 233.113, 63.296 237.024 L 63.884 239.274 52.692 238.659 C 46.536 238.320, 37.803 237.616, 33.284 237.093 C 28.230 236.508, 23.782 236.497, 21.727 237.065 C 17.810 238.147, 13.511 242.418, 12.651 246.085 C 11.847 249.513, 13.432 254.767, 16.141 257.650 C 18.144 259.783, 18.196 260.127, 16.757 261.740 C 13.296 265.617, 14.204 271.439, 19.022 276.258 L 23.045 280.280 20.833 281.829 C 15.119 285.831, 13.729 288.700, 16.421 290.934 C 17.539 291.862, 18.873 291.598, 22.671 289.700 C 29.458 286.307, 31.682 285.896, 47.692 285.072 C 61.729 284.350, 65 283.476, 65 280.449 C 65 277.101, 62.216 276.318, 47.871 275.634 C 31.719 274.863, 26.486 273.672, 24.251 270.260 C 21.610 266.230, 23.452 265.767, 41.519 265.922 C 58.789 266.069, 61 265.618, 61 261.949 C 61 257.707, 58.611 257.001, 44.179 256.978 C 32.874 256.960, 29.769 256.624, 26.285 255.043 C 18.801 251.645, 19.593 245, 27.483 245 C 29.188 245, 35.964 245.713, 42.542 246.585 C 49.119 247.456, 57.275 248, 60.667 247.792 C 66.791 247.418, 66.837 247.436, 67.417 250.333 C 67.737 251.937, 68 254.474, 68 255.970 C 68 257.466, 68.902 259.506, 70.004 260.504 C 71.660 262.002, 72.442 262.120, 74.504 261.180 C 76.687 260.185, 76.985 259.445, 76.882 255.271 C 76.817 252.647, 76.459 249.150, 76.087 247.500 C 75.507 244.924, 75.939 243.979, 79.141 240.814 C 84.567 235.451, 86.427 227, 82.181 227 C 81.298 227, 78.730 228.812, 76.473 231.026 L 72.371 235.052 69.113 230.024 C 63.021 220.624, 49.939 214.420, 41.643 216.997 M 468.067 242.874 C 467.480 243.971, 467 245.573, 467 246.434 C 467 248.490, 460.073 248.510, 450.500 246.483 C 441.359 244.546, 441.155 244.566, 439.801 247.537 C 438.873 249.574, 438.935 250.364, 440.118 251.546 C 441.978 253.407, 453.852 255.960, 460.750 255.983 L 466 256 466.100 265.750 C 466.231 278.637, 466.788 280.500, 470.508 280.500 C 473.054 280.500, 473.538 280.024, 474.312 276.750 C 475.367 272.288, 475.337 272.291, 488.298 275.214 C 496.622 277.091, 498.250 277.214, 498.989 276.018 C 499.491 275.205, 499.469 273.876, 498.936 272.880 C 497.409 270.026, 487.637 265.868, 481.057 265.271 L 475 264.722 475 260.570 L 475 256.417 482.204 254.727 C 490.786 252.712, 498.363 248.372, 498.820 245.208 C 499.329 241.686, 496.865 241.629, 486.573 244.926 C 481.295 246.617, 476.400 248, 475.695 248 C 474.990 248, 473.983 246.538, 473.457 244.752 C 472.342 240.966, 469.600 240.011, 468.067 242.874 M 450.500 266.681 C 445.187 267.874, 441.691 269.389, 438.975 271.675 C 435.687 274.441, 435.181 277.075, 437.558 279.048 C 438.855 280.125, 439.904 279.954, 443.808 278.028 C 446.389 276.755, 451.388 274.971, 454.918 274.064 C 462.250 272.179, 464.678 269.758, 461.559 267.441 C 459.703 266.063, 454.764 265.723, 450.500 266.681 M 73 326.290 C 68.524 328.546, 69.597 334.857, 74.212 333.422 C 76.632 332.669, 80 334.720, 80 336.946 C 80 339.883, 74.860 343.489, 66.327 346.537 C 62.022 348.075, 56.214 350.162, 53.421 351.175 C 44.383 354.451, 36 363.950, 36 370.915 C 36 377.863, 42.941 384, 50.800 384 C 56.027 384, 65.131 379.312, 72.275 372.943 L 78.051 367.795 80.114 370.417 C 82.970 374.048, 87.149 376, 92.068 376 C 95.575 376, 96.850 375.385, 100.118 372.118 C 103.530 368.705, 104 367.664, 104 363.518 C 104 359.508, 103.502 358.302, 100.679 355.479 C 93.436 348.236, 85.050 350.489, 70.924 363.472 C 56.129 377.070, 45 380.018, 45 370.339 C 45 364.785, 49.941 361.502, 68.811 354.519 C 80.838 350.068, 87.388 344.781, 88.550 338.583 C 90.271 329.412, 81.134 322.189, 73 326.290 M 180.571 327.571 C 179.707 328.436, 179 329.754, 179 330.500 C 179 331.246, 179.707 332.564, 180.571 333.429 C 183.592 336.449, 188 334.711, 188 330.500 C 188 326.289, 183.592 324.551, 180.571 327.571 M 457.277 344.973 C 455.504 346.054, 453.781 348.023, 453.449 349.348 C 451.847 355.731, 455.526 361.643, 458.559 357.559 C 459.351 356.491, 460 354.627, 460 353.416 C 460 350.810, 462.416 349.617, 464.948 350.972 C 468.761 353.013, 467.983 358.655, 463.481 361.605 C 458.929 364.587, 450.957 362.338, 431.877 352.687 C 414.490 343.893, 412 343.368, 412 348.499 C 412 351.032, 412.153 351.166, 426.901 361.572 C 437.467 369.027, 446.507 377.978, 447.981 382.442 C 449.404 386.756, 447.228 391.654, 443.469 392.597 C 438.276 393.900, 436.029 388.338, 440.550 385.375 C 443.748 383.280, 443.538 379.647, 440.192 379.173 C 435.117 378.453, 429.593 385.420, 430.690 391.158 C 432.080 398.432, 442.948 402.341, 449.808 398.035 C 453.324 395.828, 456.956 389.205, 456.956 385 C 456.956 382.114, 453.635 374.359, 451.289 371.767 C 449.770 370.088, 449.997 370.030, 455.754 370.632 C 460.830 371.163, 462.573 370.901, 466.443 369.028 C 475.752 364.521, 477.875 352.940, 470.613 346.284 C 466.386 342.411, 462.161 341.995, 457.277 344.973 M 88.250 360.491 C 86.463 361.268, 85 362.530, 85 363.297 C 85 365.302, 88.303 368, 90.757 368 C 93.133 368, 96 365.539, 96 363.500 C 96 362.075, 93.342 358.972, 92.179 359.039 C 91.805 359.061, 90.037 359.714, 88.250 360.491 M 138.500 410.881 C 131.058 412.827, 124.646 418.261, 122.994 424.020 C 119.427 436.457, 136.030 447.189, 145.402 438.503 C 150.287 433.976, 149.931 422.794, 144.883 422.199 C 141.608 421.814, 140.230 423.535, 139.825 428.513 C 139.556 431.812, 139.098 432.557, 137.168 432.830 C 131.462 433.638, 128.997 426.230, 133.549 421.954 C 135.602 420.025, 137.400 419.492, 142.799 419.210 C 154.394 418.604, 163.281 424.782, 166.100 435.409 C 167.784 441.756, 168.415 442.500, 172.109 442.500 L 175.500 442.500 175.332 437.678 C 174.977 427.511, 166.180 415.953, 156.212 412.556 C 150.440 410.590, 142.489 409.838, 138.500 410.881 M 347.137 413.369 C 342.392 415.086, 336.020 420.709, 334.385 424.621 C 330.196 434.646, 336.856 447, 346.448 447 C 350.192 447, 352 445.459, 352 442.269 C 352 439.900, 351.619 439.631, 346.763 438.568 C 339.459 436.968, 339.612 427.270, 347.018 422.369 C 354.016 417.738, 365.089 419.510, 367.915 425.712 C 370.838 432.128, 367.593 441.120, 360.625 445.914 C 358.107 447.646, 354.799 451.187, 353.273 453.782 C 350.859 457.889, 350.500 459.548, 350.500 466.596 C 350.500 475.020, 351.656 478, 354.922 478 C 358.084 478, 359 475.766, 359.004 468.050 C 359.008 459.299, 360.905 455.163, 366.206 452.348 C 370.675 449.975, 378.992 450.217, 386.731 452.945 C 393.073 455.182, 395 455.053, 395 452.393 C 395 448.756, 386.619 443.960, 377.740 442.517 C 374.231 441.946, 374.059 441.759, 375.157 439.707 C 376.841 436.559, 376.603 427.034, 374.751 423.500 C 369.778 414.011, 357.655 409.563, 347.137 413.369 M 265.500 441.519 C 258.371 444.344, 248.544 444.704, 242.500 442.362 C 235.091 439.490, 233.190 439.489, 231.881 442.361 C 230.365 445.690, 231.594 447.241, 237.682 449.676 L 242.241 451.500 241.602 466.137 C 240.910 482.017, 241.591 486, 245 486 C 247.995 486, 248.667 483.193, 249.490 467.250 L 250.225 453 253.089 453 L 255.954 453 256.227 470.750 L 256.500 488.500 249.319 489.645 C 245.369 490.275, 239.632 491.938, 236.569 493.340 C 231.958 495.451, 231 496.323, 231 498.409 C 231 502.679, 233.854 503.231, 241.004 500.343 C 248.588 497.279, 256.040 496.978, 264.334 499.401 C 268.848 500.719, 270.489 500.839, 271.584 499.930 C 273.962 497.957, 273.198 495.088, 269.750 493.045 C 267.962 491.985, 265.938 490.624, 265.250 490.020 C 263.848 488.788, 263.592 475.822, 264.652 459.810 C 265.281 450.313, 265.351 450.097, 268.181 448.925 C 272.414 447.172, 275.214 443.268, 273.943 440.893 C 272.713 438.595, 272.914 438.581, 265.500 441.519 M 117.243 441.157 C 115.626 442.774, 115.676 444.545, 117.510 450.721 C 119.410 457.121, 126.506 465.209, 133.193 468.598 C 143.651 473.897, 157.043 472.545, 164.347 465.452 C 174.257 455.827, 168.452 441.015, 154.766 441.004 C 145.519 440.996, 140.432 449.918, 144.344 459.280 C 145.895 462.993, 145.893 463, 143.409 463 C 136.871 463, 127.936 455.203, 125.952 447.767 C 125.326 445.420, 124.473 442.825, 124.056 442 C 123.081 440.070, 118.853 439.547, 117.243 441.157 M 153.571 450.571 C 151.511 452.632, 151.586 454.316, 153.829 456.345 C 155.988 458.299, 158.137 458.463, 159.800 456.800 C 161.660 454.940, 161.223 452.269, 158.777 450.557 C 156.009 448.618, 155.524 448.619, 153.571 450.571" stroke="none" fill="#a3e635" fill-rule="evenodd"/></svg>